<svg width="107" height="33" viewBox="0 0 107 33" fill="none" xmlns="http://www.w3.org/2000/svg"><g clip-path="url(#clip0_721_22526)"><path d="M0 4.95C0 2.21619 2.21102 0 4.93846 0H102.062C104.789 0 107 2.21619 107 4.95V28.05C107 30.7838 104.789 33 102.062 33H4.93846C2.21102 33 0 30.7838 0 28.05V4.95Z" fill="black"></path><path fill-rule="evenodd" clip-rule="evenodd" d="M86.3354 25.5358H87.8713V15.2225H86.3354V25.5358ZM100.169 18.9375L98.4083 23.409H98.3557L96.5284 18.9375H94.874L97.6141 25.1869L96.0519 28.6634H97.6544L101.877 18.9375H100.169ZM91.4591 24.3643C90.9554 24.3643 90.2541 24.1127 90.2541 23.489C90.2541 22.6929 91.1282 22.3876 91.8822 22.3876C92.5579 22.3876 92.8748 22.5337 93.2855 22.7325C93.1662 23.6878 92.3456 24.3643 91.4591 24.3643ZM91.6443 18.7123C90.5323 18.7123 89.3808 19.2031 88.9043 20.2913L90.2673 20.8614C90.5586 20.2913 91.1011 20.1049 91.6706 20.1049C92.4649 20.1049 93.2723 20.5825 93.2855 21.4323V21.5379C93.0073 21.3787 92.4122 21.1402 91.6838 21.1402C90.2146 21.1402 88.7182 21.9496 88.7182 23.4618C88.7182 24.842 89.9232 25.7314 91.2731 25.7314C92.306 25.7314 92.8748 25.2669 93.2328 24.7224H93.2855V25.5185H94.7679V21.5651C94.7679 19.7336 93.4048 18.7123 91.6443 18.7123ZM82.1526 20.1931H79.9681V16.658H82.1526C83.3008 16.658 83.9526 17.6109 83.9526 18.4252C83.9526 19.2246 83.3008 20.1931 82.1526 20.1931ZM82.1131 15.2225H78.4331V25.5358H79.9681V21.6286H82.1131C83.8152 21.6286 85.4885 20.3928 85.4885 18.4252C85.4885 16.4575 83.8152 15.2225 82.1131 15.2225ZM62.0456 24.366C60.9847 24.366 60.0966 23.4758 60.0966 22.2532C60.0966 21.0173 60.9847 20.1131 62.0456 20.1131C63.0934 20.1131 63.9148 21.0173 63.9148 22.2532C63.9148 23.4758 63.0934 24.366 62.0456 24.366ZM63.8086 19.515H63.756C63.4111 19.1033 62.7485 18.7312 61.9131 18.7312C60.1624 18.7312 58.5582 20.2723 58.5582 22.2532C58.5582 24.22 60.1624 25.7487 61.9131 25.7487C62.7485 25.7487 63.4111 25.3766 63.756 24.9509H63.8086V25.4558C63.8086 26.7989 63.0934 27.5167 61.9394 27.5167C60.9978 27.5167 60.4143 26.8385 60.1756 26.2668L58.8364 26.8253C59.2208 27.7559 60.2423 28.8985 61.9394 28.8985C63.7428 28.8985 65.268 27.8351 65.268 25.2438V18.9433H63.8086V19.515ZM66.3289 25.5358H67.8672V15.2217H66.3289V25.5358ZM70.134 22.1335C70.0945 20.7781 71.1818 20.0867 71.9637 20.0867C72.5744 20.0867 73.0913 20.392 73.2633 20.8309L70.134 22.1335ZM74.9078 20.9637C74.6165 20.1799 73.7276 18.7312 71.911 18.7312C70.1077 18.7312 68.6097 20.1527 68.6097 22.24C68.6097 24.2068 70.0945 25.7487 72.083 25.7487C73.688 25.7487 74.6165 24.7653 75.0008 24.1936L73.8074 23.3958C73.4098 23.9807 72.8658 24.366 72.083 24.366C71.3011 24.366 70.7439 24.0071 70.3859 23.3034L75.0667 21.363L74.9078 20.9637ZM37.6159 19.8079V21.2962H41.1691C41.0629 22.1335 40.7847 22.7449 40.3608 23.1706C39.8431 23.6887 39.034 24.2596 37.6159 24.2596C35.4281 24.2596 33.717 22.4924 33.717 20.2996C33.717 18.1059 35.4281 16.3387 37.6159 16.3387C38.7962 16.3387 39.6579 16.804 40.2942 17.4022L41.3419 16.3519C40.453 15.5014 39.2735 14.8496 37.6159 14.8496C34.619 14.8496 32.0996 17.2957 32.0996 20.2996C32.0996 23.3034 34.619 25.7487 37.6159 25.7487C39.2332 25.7487 40.453 25.2174 41.4078 24.22C42.3889 23.2366 42.6943 21.8547 42.6943 20.7376C42.6943 20.392 42.6679 20.0735 42.6144 19.8079H37.6159ZM46.7347 24.366C45.6738 24.366 44.7585 23.489 44.7585 22.24C44.7585 20.9769 45.6738 20.1131 46.7347 20.1131C47.7949 20.1131 48.7101 20.9769 48.7101 22.24C48.7101 23.489 47.7949 24.366 46.7347 24.366ZM46.7347 18.7312C44.798 18.7312 43.2202 20.2063 43.2202 22.24C43.2202 24.2596 44.798 25.7487 46.7347 25.7487C48.6706 25.7487 50.2485 24.2596 50.2485 22.24C50.2485 20.2063 48.6706 18.7312 46.7347 18.7312ZM54.4001 24.366C53.3391 24.366 52.4238 23.489 52.4238 22.24C52.4238 20.9769 53.3391 20.1131 54.4001 20.1131C55.461 20.1131 56.3754 20.9769 56.3754 22.24C56.3754 23.489 55.461 24.366 54.4001 24.366ZM54.4001 18.7312C52.4642 18.7312 50.8863 20.2063 50.8863 22.24C50.8863 24.2596 52.4642 25.7487 54.4001 25.7487C56.3359 25.7487 57.9138 24.2596 57.9138 22.24C57.9138 20.2063 56.3359 18.7312 54.4001 18.7312Z" fill="white"></path><path d="M35.7771 10.8579C35.5987 11.1142 35.3491 11.3063 35.0283 11.4344C34.7101 11.5601 34.3387 11.623 33.9143 11.623C33.4851 11.623 33.1041 11.5226 32.7713 11.322C32.4385 11.119 32.1806 10.8314 31.9973 10.4591C31.8165 10.087 31.7236 9.6555 31.7188 9.16487V8.70444C31.7188 7.90925 31.9033 7.29291 32.2722 6.85543C32.6436 6.41796 33.1644 6.19922 33.8347 6.19922C34.3845 6.19922 34.827 6.34062 35.1622 6.6234C35.4974 6.90378 35.7024 7.30257 35.7771 7.81982H35.0826C34.9524 7.1213 34.5376 6.77205 33.8383 6.77205C33.373 6.77205 33.0197 6.93641 32.7785 7.26511C32.5399 7.59141 32.4193 8.06514 32.4169 8.68629V9.11776C32.4169 9.70987 32.5519 10.1812 32.822 10.5316C33.0921 10.8797 33.4573 11.0537 33.9179 11.0537C34.1784 11.0537 34.4063 11.0248 34.6016 10.9668C34.7969 10.9088 34.9585 10.8108 35.0862 10.6731V9.48753H33.8673V8.92199H35.7771V10.8579ZM39.6927 9.1105H37.4104V10.9813H40.0617V11.5504H36.7159V6.27173H40.0255V6.84456H37.4104V8.54125H39.6927V9.1105ZM44.415 6.84456H42.7222V11.5504H42.0314V6.84456H40.3422V6.27173H44.415V6.84456ZM47.1897 11.5504H46.4952V6.27173H47.1897V11.5504ZM51.7709 6.84456H50.0781V11.5504H49.3872V6.84456H47.6981V6.27173H51.7709V6.84456ZM57.8516 9.08146C57.8516 9.59874 57.7648 10.0507 57.5912 10.4374C57.4175 10.8217 57.1716 11.1154 56.8533 11.3185C56.535 11.5214 56.1636 11.623 55.7393 11.623C55.3245 11.623 54.9568 11.5214 54.636 11.3185C54.3153 11.1129 54.0658 10.8217 53.8873 10.4447C53.7113 10.0652 53.6208 9.62654 53.6161 9.12865V8.74792C53.6161 8.24037 53.704 7.79202 53.8801 7.40289C54.0561 7.01375 54.3045 6.71645 54.6251 6.51101C54.9483 6.30315 55.3173 6.19922 55.732 6.19922C56.154 6.19922 56.5253 6.30194 56.8461 6.50739C57.1692 6.71041 57.4175 7.0065 57.5912 7.39563C57.7648 7.78235 57.8516 8.23312 57.8516 8.74792V9.08146ZM57.1607 8.74066C57.1607 8.11469 57.0354 7.63492 56.7846 7.30137C56.5338 6.9654 56.1829 6.79743 55.732 6.79743C55.2932 6.79743 54.9471 6.9654 54.6939 7.30137C54.4432 7.63492 54.3141 8.09898 54.3069 8.69355V9.08146C54.3069 9.68817 54.4335 10.1655 54.6867 10.5136C54.9423 10.8592 55.2932 11.032 55.7393 11.032C56.1878 11.032 56.535 10.8688 56.7809 10.5425C57.0269 10.2139 57.1535 9.74377 57.1607 9.1322V8.74066ZM62.7185 11.5504H62.0204L59.3691 7.48265V11.5504H58.6711V6.27173H59.3691L62.0277 10.3577V6.27173H62.7185V11.5504Z" fill="white"></path><path fill-rule="evenodd" clip-rule="evenodd" d="M7.76698 6.22639C7.52747 6.48049 7.38672 6.87402 7.38672 7.38469V25.6155C7.38672 26.1262 7.52747 26.5197 7.76698 26.7738L7.82789 26.8332L18.0168 16.6206V16.3797L7.82789 6.16699L7.76698 6.22639Z" fill="#00D7FE"></path><mask id="mask0_721_22526" maskUnits="userSpaceOnUse" x="18" y="12" width="9" height="9" style="mask-type: alpha;"><path d="M21.4108 20.0259L18.0156 16.6203V16.3794L21.4125 12.9746L25.513 15.3094C26.662 15.9644 26.662 17.0353 25.513 17.6895L21.489 19.9813L21.4108 20.0259Z" fill="white"></path></mask><g mask="url(#mask0_721_22526)"><path fill-rule="evenodd" clip-rule="evenodd" d="M21.4108 20.0259L18.0156 16.6203V16.3794L21.4125 12.9746L25.513 15.3094C26.662 15.9644 26.662 17.0353 25.513 17.6895L21.489 19.9813L21.4108 20.0259Z" fill="url(#paint0_linear_721_22526)"></path></g><mask id="mask1_721_22526" maskUnits="userSpaceOnUse" x="7" y="16" width="15" height="12" style="mask-type: alpha;"><path d="M21.4888 19.9815L18.0154 16.5L7.76562 26.7737C8.14506 27.1755 8.7706 27.225 9.47516 26.8241L21.4888 19.9815Z" fill="white"></path></mask><g mask="url(#mask1_721_22526)"><path fill-rule="evenodd" clip-rule="evenodd" d="M21.4888 19.9815L18.0154 16.5L7.76562 26.7737C8.14506 27.1755 8.7706 27.225 9.47516 26.8241L21.4888 19.9815Z" fill="url(#paint1_linear_721_22526)"></path></g><mask id="mask2_721_22526" maskUnits="userSpaceOnUse" x="7" y="5" width="15" height="12" style="mask-type: alpha;"><path d="M21.4888 13.019L9.47516 6.17643C8.7706 5.77548 8.14506 5.82498 7.76562 6.22676L18.0154 16.5005L21.4888 13.019Z" fill="white"></path></mask><g mask="url(#mask2_721_22526)"><path fill-rule="evenodd" clip-rule="evenodd" d="M21.4888 13.019L9.47516 6.17643C8.7706 5.77548 8.14506 5.82498 7.76562 6.22676L18.0154 16.5005L21.4888 13.019Z" fill="url(#paint2_linear_721_22526)"></path></g></g><defs><linearGradient id="paint0_linear_721_22526" x1="24.7655" y1="16.5001" x2="18.0156" y2="16.5001" gradientUnits="userSpaceOnUse"><stop stop-color="#FFBC00"></stop><stop offset="1" stop-color="#FFDA03"></stop></linearGradient><linearGradient id="paint1_linear_721_22526" x1="19.6011" y1="19.7759" x2="10.7747" y2="27.0343" gradientUnits="userSpaceOnUse"><stop stop-color="#E22652"></stop><stop offset="1" stop-color="#FF3A44"></stop></linearGradient><linearGradient id="paint2_linear_721_22526" x1="9.3177" y1="7.46357" x2="15.2033" y2="12.6268" gradientUnits="userSpaceOnUse"><stop stop-color="#0ED574"></stop><stop offset="1" stop-color="#07F076"></stop></linearGradient><clipPath id="clip0_721_22526"><rect width="107" height="33" fill="white"></rect></clipPath></defs></svg>