<svg width="107" height="33" viewBox="0 0 107 33" fill="none" xmlns="http://www.w3.org/2000/svg"><g clip-path="url(#clip0_721_22520)"><path d="M0 4.95C0 2.21619 2.21102 0 4.93846 0H102.062C104.789 0 107 2.21619 107 4.95V28.05C107 30.7838 104.789 33 102.062 33H4.93846C2.21102 33 0 30.7838 0 28.05V4.95Z" fill="black"></path><path fill-rule="evenodd" clip-rule="evenodd" d="M21.2106 16.9791C21.2285 15.5795 21.9606 14.2867 23.1502 13.5537C22.3963 12.4744 21.1789 11.8148 19.8652 11.7736C18.483 11.6281 17.1431 12.6026 16.4388 12.6026C15.7208 12.6026 14.6364 11.788 13.4687 11.8121C11.9323 11.8619 10.5346 12.7162 9.78719 14.0626C8.19533 16.8251 9.38265 20.8849 10.9076 23.1178C11.6705 24.2113 12.562 25.4326 13.7287 25.3893C14.8703 25.3419 15.2968 24.6596 16.6749 24.6596C18.0402 24.6596 18.4402 25.3893 19.6305 25.3618C20.8556 25.3419 21.6274 24.2635 22.3636 23.1597C22.9117 22.3806 23.3335 21.5196 23.6133 20.6084C22.1584 19.9916 21.2122 18.5626 21.2106 16.9791Z" fill="white"></path><path fill-rule="evenodd" clip-rule="evenodd" d="M18.9612 10.3045C19.6292 9.50083 19.9583 8.46777 19.8786 7.4248C18.858 7.53224 17.9155 8.0211 17.2385 8.79397C16.57 9.55652 16.2314 10.5542 16.2971 11.5671C17.3312 11.5778 18.3132 11.1125 18.9612 10.3045Z" fill="white"></path><path d="M34.2037 11.3686V7.25513H35.389C35.7149 7.25513 35.989 7.30216 36.2112 7.39621C36.4334 7.48531 36.6137 7.61896 36.752 7.79716C36.8952 7.97041 36.9964 8.18326 37.0557 8.43571C37.1199 8.68321 37.152 8.96536 37.152 9.28216C37.152 9.60886 37.1174 9.88853 37.0483 10.1212C36.9841 10.3489 36.9001 10.5395 36.7964 10.6929C36.6927 10.8464 36.5742 10.9676 36.4409 11.0567C36.3125 11.1458 36.1816 11.2151 36.0482 11.2646C35.9149 11.3092 35.789 11.3389 35.6705 11.3537C35.5519 11.3636 35.4532 11.3686 35.3741 11.3686H34.2037ZM33.5 6.66113V11.9626H35.3149C35.7544 11.9626 36.1347 11.9007 36.4557 11.777C36.7767 11.6532 37.0409 11.475 37.2483 11.2424C37.4557 11.0048 37.6088 10.7152 37.7076 10.3736C37.8063 10.0271 37.8557 9.63113 37.8557 9.18563C37.8557 8.33423 37.636 7.70063 37.1964 7.28483C36.7569 6.86903 36.1297 6.66113 35.3149 6.66113H33.5ZM39.2195 10.0469C39.2195 9.81428 39.2491 9.60886 39.3084 9.43066C39.3726 9.24751 39.459 9.09406 39.5676 8.97031C39.6763 8.84656 39.8022 8.75251 39.9454 8.68816C40.0936 8.62381 40.2491 8.59163 40.4121 8.59163C40.5751 8.59163 40.7282 8.62381 40.8714 8.68816C41.0195 8.75251 41.1479 8.84656 41.2566 8.97031C41.3652 9.09406 41.4492 9.24751 41.5085 9.43066C41.5727 9.60886 41.6048 9.81428 41.6048 10.0469C41.6048 10.2796 41.5727 10.4875 41.5085 10.6706C41.4492 10.8488 41.3652 10.9998 41.2566 11.1236C41.1479 11.2424 41.0195 11.3339 40.8714 11.3983C40.7282 11.4626 40.5751 11.4948 40.4121 11.4948C40.2491 11.4948 40.0936 11.4626 39.9454 11.3983C39.8022 11.3339 39.6763 11.2424 39.5676 11.1236C39.459 10.9998 39.3726 10.8488 39.3084 10.6706C39.2491 10.4875 39.2195 10.2796 39.2195 10.0469ZM38.5528 10.0469C38.5528 10.3291 38.5923 10.5914 38.6713 10.834C38.7503 11.0765 38.8688 11.2894 39.0269 11.4725C39.1849 11.6507 39.38 11.7918 39.6121 11.8958C39.8442 11.9948 40.1109 12.0443 40.4121 12.0443C40.7183 12.0443 40.985 11.9948 41.2121 11.8958C41.4443 11.7918 41.6393 11.6507 41.7974 11.4725C41.9554 11.2894 42.0739 11.0765 42.1529 10.834C42.2319 10.5914 42.2714 10.3291 42.2714 10.0469C42.2714 9.76478 42.2319 9.50243 42.1529 9.25988C42.0739 9.01238 41.9554 8.79953 41.7974 8.62133C41.6393 8.43818 41.4443 8.29463 41.2121 8.19068C40.985 8.08673 40.7183 8.03476 40.4121 8.03476C40.1109 8.03476 39.8442 8.08673 39.6121 8.19068C39.38 8.29463 39.1849 8.43818 39.0269 8.62133C38.8688 8.79953 38.7503 9.01238 38.6713 9.25988C38.5923 9.50243 38.5528 9.76478 38.5528 10.0469ZM46.9548 11.9626L48.177 8.12386H47.5251L46.6659 11.2646H46.651L45.851 8.12386H45.1621L44.3917 11.2646H44.3769L43.5102 8.12386H42.8139L44.0435 11.9626H44.725L45.4954 8.91091H45.5103L46.2881 11.9626H46.9548ZM48.9238 8.12386V11.9626H49.5535V9.79448C49.5535 9.62123 49.5757 9.46283 49.6201 9.31928C49.6695 9.17078 49.7411 9.04208 49.8349 8.93318C49.9288 8.82428 50.0448 8.74013 50.1831 8.68073C50.3263 8.62133 50.4942 8.59163 50.6868 8.59163C50.9288 8.59163 51.1189 8.66093 51.2572 8.79953C51.3955 8.93813 51.4646 9.12623 51.4646 9.36383V11.9626H52.0943V9.43808C52.0943 9.23018 52.0721 9.04208 52.0276 8.87378C51.9881 8.70053 51.9165 8.55203 51.8128 8.42828C51.7091 8.30453 51.5733 8.20801 51.4054 8.13871C51.2375 8.06941 51.0276 8.03476 50.7757 8.03476C50.2078 8.03476 49.793 8.26741 49.5312 8.73271H49.5164V8.12386H48.9238ZM53.2252 6.66113V11.9626H53.8549V6.66113H53.2252ZM55.4377 10.0469C55.4377 9.81428 55.4673 9.60886 55.5266 9.43066C55.5908 9.24751 55.6772 9.09406 55.7859 8.97031C55.8945 8.84656 56.0205 8.75251 56.1637 8.68816C56.3118 8.62381 56.4674 8.59163 56.6304 8.59163C56.7933 8.59163 56.9464 8.62381 57.0896 8.68816C57.2378 8.75251 57.3662 8.84656 57.4748 8.97031C57.5835 9.09406 57.6674 9.24751 57.7267 9.43066C57.7909 9.60886 57.823 9.81428 57.823 10.0469C57.823 10.2796 57.7909 10.4875 57.7267 10.6706C57.6674 10.8488 57.5835 10.9998 57.4748 11.1236C57.3662 11.2424 57.2378 11.3339 57.0896 11.3983C56.9464 11.4626 56.7933 11.4948 56.6304 11.4948C56.4674 11.4948 56.3118 11.4626 56.1637 11.3983C56.0205 11.3339 55.8945 11.2424 55.7859 11.1236C55.6772 10.9998 55.5908 10.8488 55.5266 10.6706C55.4673 10.4875 55.4377 10.2796 55.4377 10.0469ZM54.771 10.0469C54.771 10.3291 54.8105 10.5914 54.8895 10.834C54.9686 11.0765 55.0871 11.2894 55.2451 11.4725C55.4031 11.6507 55.5982 11.7918 55.8303 11.8958C56.0624 11.9948 56.3291 12.0443 56.6304 12.0443C56.9365 12.0443 57.2032 11.9948 57.4304 11.8958C57.6625 11.7918 57.8576 11.6507 58.0156 11.4725C58.1736 11.2894 58.2921 11.0765 58.3712 10.834C58.4502 10.5914 58.4897 10.3291 58.4897 10.0469C58.4897 9.76478 58.4502 9.50243 58.3712 9.25988C58.2921 9.01238 58.1736 8.79953 58.0156 8.62133C57.8576 8.43818 57.6625 8.29463 57.4304 8.19068C57.2032 8.08673 56.9365 8.03476 56.6304 8.03476C56.3291 8.03476 56.0624 8.08673 55.8303 8.19068C55.5982 8.29463 55.4031 8.43818 55.2451 8.62133C55.0871 8.79953 54.9686 9.01238 54.8895 9.25988C54.8105 9.50243 54.771 9.76478 54.771 10.0469ZM62.773 11.9477C62.6643 12.0121 62.5137 12.0443 62.3211 12.0443C62.1581 12.0443 62.0273 11.9997 61.9285 11.9106C61.8347 11.8166 61.7878 11.6656 61.7878 11.4577C61.6149 11.6656 61.4124 11.8166 61.1803 11.9106C60.9532 11.9997 60.7062 12.0443 60.4396 12.0443C60.2667 12.0443 60.1013 12.0245 59.9432 11.9849C59.7901 11.9453 59.6568 11.8834 59.5432 11.7992C59.4296 11.7151 59.3383 11.6062 59.2691 11.4725C59.2049 11.3339 59.1728 11.1681 59.1728 10.9751C59.1728 10.7573 59.2099 10.5791 59.284 10.4405C59.358 10.3019 59.4543 10.1905 59.5729 10.1063C59.6963 10.0172 59.8346 9.95041 59.9877 9.90586C60.1457 9.86131 60.3062 9.82418 60.4692 9.79448C60.642 9.75983 60.805 9.73508 60.9581 9.72023C61.1161 9.70043 61.2544 9.67568 61.3729 9.64598C61.4914 9.61133 61.5853 9.56431 61.6544 9.50491C61.7236 9.44056 61.7581 9.34898 61.7581 9.23018C61.7581 9.09158 61.731 8.98021 61.6766 8.89606C61.6273 8.81191 61.5606 8.74756 61.4766 8.70301C61.3976 8.65846 61.3063 8.62876 61.2025 8.61391C61.1038 8.59906 61.005 8.59163 60.9062 8.59163C60.6396 8.59163 60.4173 8.64361 60.2395 8.74756C60.0618 8.84656 59.9655 9.03713 59.9506 9.31928H59.321C59.3309 9.08168 59.3803 8.88121 59.4691 8.71786C59.558 8.55451 59.6766 8.42333 59.8247 8.32433C59.9729 8.22038 60.1408 8.14613 60.3284 8.10158C60.521 8.05703 60.726 8.03476 60.9433 8.03476C61.1161 8.03476 61.2865 8.04713 61.4544 8.07188C61.6273 8.09663 61.7828 8.14861 61.9211 8.22781C62.0594 8.30206 62.1705 8.40848 62.2544 8.54708C62.3384 8.68568 62.3804 8.86636 62.3804 9.08911V11.0642C62.3804 11.2127 62.3878 11.3216 62.4026 11.3909C62.4223 11.4602 62.4816 11.4948 62.5804 11.4948C62.6347 11.4948 62.6989 11.4824 62.773 11.4577V11.9477ZM61.7507 9.98011C61.6717 10.0395 61.568 10.0841 61.4396 10.1138C61.3112 10.1385 61.1754 10.1608 61.0322 10.1806C60.8939 10.1954 60.7531 10.2152 60.6099 10.24C60.4667 10.2598 60.3383 10.2944 60.2247 10.3439C60.1111 10.3934 60.0173 10.4652 59.9432 10.5593C59.8741 10.6484 59.8395 10.7721 59.8395 10.9305C59.8395 11.0345 59.8593 11.1236 59.8988 11.1978C59.9432 11.2671 59.9976 11.324 60.0618 11.3686C60.1309 11.4131 60.2099 11.4453 60.2988 11.4651C60.3877 11.4849 60.4815 11.4948 60.5803 11.4948C60.7877 11.4948 60.9655 11.4676 61.1137 11.4131C61.2618 11.3537 61.3828 11.282 61.4766 11.1978C61.5705 11.1087 61.6396 11.0147 61.684 10.9157C61.7285 10.8117 61.7507 10.7152 61.7507 10.6261V9.98011ZM63.9664 10.0766C63.9664 9.88853 63.9861 9.70538 64.0256 9.52718C64.0651 9.34898 64.1293 9.19058 64.2182 9.05198C64.3071 8.91338 64.4256 8.80201 64.5738 8.71786C64.7219 8.63371 64.9022 8.59163 65.1145 8.59163C65.3318 8.59163 65.517 8.63371 65.6701 8.71786C65.8232 8.79706 65.9467 8.90348 66.0405 9.03713C66.1393 9.17078 66.2109 9.32671 66.2553 9.50491C66.2998 9.67816 66.322 9.85883 66.322 10.0469C66.322 10.2251 66.2998 10.4009 66.2553 10.5741C66.2158 10.7474 66.1492 10.9033 66.0553 11.0419C65.9615 11.1755 65.8405 11.2844 65.6923 11.3686C65.5442 11.4527 65.3639 11.4948 65.1516 11.4948C64.9491 11.4948 64.7713 11.4552 64.6182 11.376C64.4701 11.2968 64.3466 11.1904 64.2478 11.0567C64.154 10.9231 64.0824 10.7721 64.033 10.6038C63.9886 10.4306 63.9664 10.2548 63.9664 10.0766ZM66.9294 11.9626V6.66113H66.2998V8.63618H66.285C66.2158 8.52233 66.1294 8.42828 66.0257 8.35403C65.9269 8.27483 65.8207 8.21296 65.7072 8.16841C65.5936 8.11891 65.48 8.08426 65.3664 8.06446C65.2528 8.04466 65.1466 8.03476 65.0479 8.03476C64.7565 8.03476 64.4997 8.08921 64.2775 8.19811C64.0602 8.30206 63.8775 8.44561 63.7293 8.62876C63.5861 8.80696 63.4775 9.01733 63.4034 9.25988C63.3342 9.50243 63.2997 9.75983 63.2997 10.0321C63.2997 10.3043 63.3367 10.5617 63.4108 10.8043C63.4849 11.0468 63.5935 11.2597 63.7367 11.4428C63.8849 11.626 64.0676 11.772 64.2849 11.8809C64.5071 11.9898 64.7664 12.0443 65.0627 12.0443C65.3294 12.0443 65.5738 11.9972 65.7961 11.9032C66.0183 11.8091 66.1813 11.6557 66.285 11.4428H66.2998V11.9626H66.9294ZM70.7155 10.0469C70.7155 9.81428 70.7451 9.60886 70.8044 9.43066C70.8686 9.24751 70.955 9.09406 71.0637 8.97031C71.1723 8.84656 71.2982 8.75251 71.4415 8.68816C71.5896 8.62381 71.7452 8.59163 71.9081 8.59163C72.0711 8.59163 72.2242 8.62381 72.3674 8.68816C72.5156 8.75251 72.644 8.84656 72.7526 8.97031C72.8613 9.09406 72.9452 9.24751 73.0045 9.43066C73.0687 9.60886 73.1008 9.81428 73.1008 10.0469C73.1008 10.2796 73.0687 10.4875 73.0045 10.6706C72.9452 10.8488 72.8613 10.9998 72.7526 11.1236C72.644 11.2424 72.5156 11.3339 72.3674 11.3983C72.2242 11.4626 72.0711 11.4948 71.9081 11.4948C71.7452 11.4948 71.5896 11.4626 71.4415 11.3983C71.2982 11.3339 71.1723 11.2424 71.0637 11.1236C70.955 10.9998 70.8686 10.8488 70.8044 10.6706C70.7451 10.4875 70.7155 10.2796 70.7155 10.0469ZM70.0488 10.0469C70.0488 10.3291 70.0883 10.5914 70.1673 10.834C70.2463 11.0765 70.3649 11.2894 70.5229 11.4725C70.6809 11.6507 70.876 11.7918 71.1081 11.8958C71.3402 11.9948 71.6069 12.0443 71.9081 12.0443C72.2143 12.0443 72.481 11.9948 72.7082 11.8958C72.9403 11.7918 73.1354 11.6507 73.2934 11.4725C73.4514 11.2894 73.5699 11.0765 73.649 10.834C73.728 10.5914 73.7675 10.3291 73.7675 10.0469C73.7675 9.76478 73.728 9.50243 73.649 9.25988C73.5699 9.01238 73.4514 8.79953 73.2934 8.62133C73.1354 8.43818 72.9403 8.29463 72.7082 8.19068C72.481 8.08673 72.2143 8.03476 71.9081 8.03476C71.6069 8.03476 71.3402 8.08673 71.1081 8.19068C70.876 8.29463 70.6809 8.43818 70.5229 8.62133C70.3649 8.79953 70.2463 9.01238 70.1673 9.25988C70.0883 9.50243 70.0488 9.76478 70.0488 10.0469ZM74.658 8.12386V11.9626H75.2877V9.79448C75.2877 9.62123 75.3099 9.46283 75.3544 9.31928C75.4038 9.17078 75.4754 9.04208 75.5692 8.93318C75.663 8.82428 75.7791 8.74013 75.9174 8.68073C76.0606 8.62133 76.2285 8.59163 76.4211 8.59163C76.6631 8.59163 76.8532 8.66093 76.9915 8.79953C77.1297 8.93813 77.1989 9.12623 77.1989 9.36383V11.9626H77.8285V9.43808C77.8285 9.23018 77.8063 9.04208 77.7619 8.87378C77.7224 8.70053 77.6508 8.55203 77.547 8.42828C77.4433 8.30453 77.3075 8.20801 77.1396 8.13871C76.9717 8.06941 76.7618 8.03476 76.51 8.03476C75.942 8.03476 75.5272 8.26741 75.2655 8.73271H75.2507V8.12386H74.658ZM82.0063 8.12386V6.97298H81.3767V8.12386H80.7248V8.68073H81.3767V11.1236C81.3767 11.3018 81.3939 11.4453 81.4285 11.5542C81.4631 11.6631 81.5149 11.7473 81.5841 11.8067C81.6581 11.8661 81.752 11.9081 81.8656 11.9329C81.9841 11.9527 82.1248 11.9626 82.2878 11.9626H82.7694V11.4057H82.4805C82.3817 11.4057 82.3001 11.4032 82.236 11.3983C82.1767 11.3884 82.1298 11.3711 82.0952 11.3463C82.0606 11.3216 82.0359 11.2869 82.0211 11.2424C82.0112 11.1978 82.0063 11.1384 82.0063 11.0642V8.68073H82.7694V8.12386H82.0063ZM83.6172 6.66113V11.9626H84.2468V9.79448C84.2468 9.62123 84.269 9.46283 84.3135 9.31928C84.3629 9.17078 84.4345 9.04208 84.5283 8.93318C84.6221 8.82428 84.7382 8.74013 84.8765 8.68073C85.0197 8.62133 85.1876 8.59163 85.3802 8.59163C85.6222 8.59163 85.8123 8.66093 85.9506 8.79953C86.0889 8.93813 86.158 9.12623 86.158 9.36383V11.9626H86.7876V9.43808C86.7876 9.23018 86.7654 9.04208 86.721 8.87378C86.6815 8.70053 86.6099 8.55203 86.5061 8.42828C86.4024 8.30453 86.2666 8.20801 86.0987 8.13871C85.9308 8.06941 85.7209 8.03476 85.4691 8.03476C85.3555 8.03476 85.237 8.04713 85.1135 8.07188C84.995 8.09663 84.8789 8.13623 84.7653 8.19068C84.6567 8.24018 84.5579 8.30701 84.469 8.39116C84.3801 8.47036 84.311 8.56936 84.2616 8.68816H84.2468V6.66113H83.6172ZM90.5409 9.67568H88.3408C88.3507 9.52718 88.3828 9.38858 88.4371 9.25988C88.4914 9.12623 88.5655 9.00991 88.6593 8.91091C88.7532 8.81191 88.8643 8.73518 88.9927 8.68073C89.126 8.62133 89.2742 8.59163 89.4371 8.59163C89.5952 8.59163 89.7384 8.62133 89.8668 8.68073C90.0001 8.73518 90.1137 8.81191 90.2075 8.91091C90.3063 9.00496 90.3828 9.11881 90.4372 9.25246C90.4964 9.38611 90.531 9.52718 90.5409 9.67568ZM91.1483 10.7449H90.5261C90.4717 10.9973 90.3581 11.1854 90.1853 11.3092C90.0174 11.4329 89.8001 11.4948 89.5334 11.4948C89.326 11.4948 89.1458 11.4602 88.9927 11.3909C88.8396 11.3216 88.7136 11.23 88.6149 11.1161C88.5161 10.9973 88.4445 10.8637 88.4001 10.7152C88.3556 10.5617 88.3358 10.4009 88.3408 10.2326H91.2076C91.2174 9.99991 91.1952 9.75488 91.1409 9.49748C91.0915 9.24008 90.9977 9.00248 90.8594 8.78468C90.7261 8.56688 90.5458 8.38868 90.3186 8.25008C90.0964 8.10653 89.8149 8.03476 89.4742 8.03476C89.2124 8.03476 88.9704 8.08426 88.7482 8.18326C88.5309 8.28226 88.3408 8.42086 88.1778 8.59906C88.0198 8.77726 87.8963 8.98763 87.8074 9.23018C87.7185 9.47273 87.6741 9.74003 87.6741 10.0321C87.684 10.3241 87.726 10.5939 87.8 10.8414C87.879 11.0889 87.9951 11.3018 88.1482 11.48C88.3013 11.6582 88.4889 11.7968 88.7112 11.8958C88.9383 11.9948 89.205 12.0443 89.5112 12.0443C89.9458 12.0443 90.3063 11.9354 90.5927 11.7176C90.8792 11.4998 91.0643 11.1755 91.1483 10.7449Z" fill="white"></path><path d="M46.8502 18.1309C48.7415 18.1309 49.9882 19.6294 49.9882 21.9441C49.9882 24.2653 48.7488 25.7565 46.8784 25.7565C45.9116 25.8072 45.0009 25.2996 44.5337 24.4497H44.4983V28.1494H42.9687V18.209H44.4493V19.4514H44.4774C44.9654 18.6068 45.877 18.0995 46.8502 18.1309ZM55.052 18.1309C56.9434 18.1309 58.1901 19.6294 58.1901 21.9441C58.1901 24.2653 56.9506 25.7565 55.0802 25.7565C54.1134 25.8072 53.2027 25.2996 52.7355 24.4497H52.7001V28.1494H51.1705V18.209H52.6511V19.4514H52.6792C53.1672 18.6068 54.0788 18.0995 55.052 18.1309ZM66.0334 15.2627C68.1932 15.2627 69.6737 16.4768 69.7236 18.2445H68.1795C68.0871 17.2221 67.2438 16.605 66.0117 16.605C64.7795 16.605 63.9363 17.2293 63.9363 18.1381C63.9363 18.8624 64.4748 19.2886 65.7923 19.6149L66.9183 19.892C69.0154 20.3891 69.8867 21.2335 69.8867 22.732C69.8867 24.6486 68.3635 25.8491 65.9409 25.8491C63.6742 25.8491 62.1439 24.6769 62.0449 22.8238L63.6108 22.8239C63.7241 23.8398 64.7088 24.5069 66.0542 24.5069C67.3436 24.5069 68.2711 23.8398 68.2711 22.9237C68.2711 22.1286 67.7117 21.6524 66.387 21.3261L65.0624 21.0063C63.1856 20.5519 62.3143 19.6721 62.3143 18.2445C62.3143 16.4768 63.8511 15.2627 66.0334 15.2627ZM78.9599 18.1172C81.1205 18.1172 82.4953 19.5939 82.4953 21.9441C82.4953 24.3007 81.1277 25.7711 78.9599 25.7711C76.7928 25.7711 75.4256 24.3007 75.4256 21.9441C75.4256 19.594 76.8066 18.1172 78.9599 18.1172ZM91.3458 18.1172C93.4076 18.1172 94.7048 19.5368 94.7048 21.8015V22.3268H89.4412V22.4195C89.3918 22.9755 89.5836 23.526 89.9672 23.9307C90.3507 24.3356 90.889 24.5557 91.4462 24.5351C92.1878 24.6048 92.8883 24.1776 93.1665 23.4846H94.6192C94.4134 24.8405 93.0957 25.7711 91.4109 25.7711C89.2429 25.7711 87.8971 24.3152 87.8971 21.9795C87.8971 19.6367 89.2503 18.1172 91.3458 18.1172ZM73.1878 16.4415V18.209H74.6049V19.4232H73.1878V23.5409C73.1878 24.1806 73.4716 24.4787 74.0946 24.4787C74.2628 24.4758 74.4308 24.4639 74.5977 24.4432V25.6501C74.3177 25.7026 74.033 25.7263 73.7481 25.7211C72.2394 25.7211 71.6511 25.153 71.6511 23.7044V19.4232H70.5676V18.209H71.651V16.4415H73.1878ZM38.3285 15.4336L42.0187 25.6784H40.3403L39.4056 22.9093H35.5096L34.574 25.6784H32.9238L36.614 15.4336H38.3285ZM87.0428 18.1309C87.2189 18.1303 87.3951 18.1495 87.5671 18.1881V19.6222C87.344 19.554 87.1119 19.5227 86.8798 19.5295C86.4296 19.5113 85.995 19.6909 85.688 20.0213C85.3818 20.3516 85.2345 20.7998 85.2855 21.248V25.6783H83.7562V18.209H85.2147V19.4803H85.2501C85.4534 18.6619 86.2016 18.0987 87.0428 18.1309ZM78.9599 19.3805C77.7205 19.3805 76.9842 20.3393 76.9842 21.9441C76.9842 23.5627 77.7205 24.5069 78.9599 24.5069C80.1993 24.5069 80.9364 23.5627 80.9364 21.9441C80.9364 20.332 80.1993 19.3805 78.9599 19.3805ZM46.4467 19.4377C45.278 19.4377 44.4919 20.4529 44.4919 21.9441C44.4919 23.4491 45.278 24.457 46.4467 24.457C47.6363 24.457 48.416 23.47 48.416 21.9441C48.416 20.4319 47.6363 19.4377 46.4467 19.4377ZM54.6485 19.4377C53.4798 19.4377 52.6937 20.4529 52.6937 21.9441C52.6937 23.4491 53.4798 24.457 54.6485 24.457C55.8381 24.457 56.6178 23.47 56.6178 21.9441C56.6178 20.4319 55.8381 19.4377 54.6485 19.4377ZM37.4789 17.1375H37.4363L35.9131 21.6315H39.0013L37.4789 17.1375ZM91.3458 19.3596C90.8429 19.3565 90.3598 19.5551 90.0034 19.9111C89.647 20.2671 89.447 20.751 89.4486 21.2552H93.1739C93.2019 20.7556 93.02 20.267 92.6735 19.9071C92.3261 19.5473 91.8454 19.3488 91.3458 19.3596Z" fill="white"></path></g><defs><clipPath id="clip0_721_22520"><rect width="107" height="33" fill="white"></rect></clipPath></defs></svg>